ply
format ascii 1.0
element vertex 11
property float x
property float y
property float z
element face 11
property list uchar int vertex_indices
end_header
4.75336 2.18592 0.416958 
4.75336 2.16592 0.417958 
4.73336 2.18592 0.420254 
4.73336 2.16592 0.418966 
4.75330 2.14580 0.418031 
4.73336 2.15592 0.417724 
4.71336 2.16592 0.417844 
4.71336 2.14592 0.418484 
4.71336 2.12592 0.419321 
4.69336 2.14592 0.418134 
4.69336 2.12592 0.418397 
3 0 3 1 
3 2 3 0 
3 3 5 4 
3 3 4 1 
3 2 6 3 
3 3 7 5 
3 6 7 3 
3 7 8 5 
3 6 9 7 
3 7 10 8 
3 9 10 7 
